<?xml version="1.0" encoding="UTF-8" standalone="no"?>
<!-- Created with Inkscape (http://www.inkscape.org/) -->

<svg
   width="512"
   height="512"
   viewBox="0 0 512 512"
   version="1.1"
   id="svg1"
   xml:space="preserve"
   xmlns="http://www.w3.org/2000/svg"
   xmlns:svg="http://www.w3.org/2000/svg"><defs
     id="defs1" /><g
     id="layer1"><g
       id="Layer 1"
       transform="matrix(0.31882689,0,0,0.30016994,-63.032222,-40.44904)"><g
         id="g249"><g
           id="&lt;Group&gt;" /><g
           id="g3"><g
             id="g2"><g
               id="g1" /></g></g><g
           id="g5"><g
             id="g4" /></g><g
           id="g6" /><g
           id="g7" /><g
           id="g9"><g
             id="g8" /></g><g
           id="g19"><g
             id="g10" /><g
             id="g11" /><g
             id="g12" /><g
             id="g13" /><g
             id="g14" /><g
             id="g15" /><g
             id="g16" /><g
             id="g17" /><g
             id="g18" /></g><g
           id="g48"><path
             id="&lt;Compound Path&gt;"
             class="s0"
             d="m 781.6,1694.2 c -14,3.3 -28.5,3.9 -42.9,1.9 -42.2,-5.7 -81,-33.2 -106.3,-75.6 -24.9,-41.4 -35.7,-91.6 -31.3,-145.9 -10.2,3.6 -20.9,6.7 -31.6,9.2 -53,12.3 -104.6,9.1 -149.2,-9.3 -37.1,-15.4 -66.3,-41.2 -82.1,-72.7 -2.8,-5.5 -5.1,-11 -6.8,-16.2 -0.7,-2.2 -1.2,-3.6 -1.6,-5.2 -14.3,-49.4 5.7,-92.7 29.2,-116.8 4,-4 8,-7.6 12.1,-10.6 -1.8,-10.1 -3,-20.8 -3.3,-31.8 -0.3,-10.6 1,-21.2 3.7,-31.6 1,-3.9 2.3,-7.7 3.7,-11.3 l 0.7,-1.8 c 10.1,-25.4 30.3,-48.4 54.2,-61.7 8.5,-4.7 17.1,-8.1 25.5,-10.1 16.4,-3.8 31,-1.9 42.4,5.5 8.2,5.3 21.7,18.6 19,47.4 -6.2,65 22.9,88.7 23.2,88.9 l 0.6,0.6 c 0.1,0 0.5,0.4 1,0.9 11.7,11.2 24.7,16.6 38.8,16.1 q 5.8,-0.1 12,-1.6 6.5,-1.5 13.5,-4.4 C 554.6,1191 518.8,1114.9 499.5,1031.7 492.7,1002.4 488,972.3 485.7,942.3 468.8,914.2 472.6,897.6 478.9,888.7 q 2.2,-3.2 5.3,-5.7 c 2.3,-93.8 27.2,-186.9 72.3,-269.8 -2.2,-3.5 -4.2,-7.1 -6,-10.7 -21.6,-42.2 -24.1,-91.6 -6.8,-132.2 9.6,-22.3 25.5,-41.5 44.8,-54 5.9,-3.7 11,-6.4 15.7,-8.4 l 3.2,-1.5 c 3.9,-1.8 8,-3.7 12.7,-5 l 2.2,-0.8 c 3.3,-1.1 6.7,-2.2 10.2,-3 q 2.2,-0.5 4.4,-0.8 l 8.2,-1.7 8.9,-0.6 c 23.8,-1.7 49.5,6.9 68.7,23.1 q 1,0.8 2,1.7 c 65.8,-49 139.8,-83.2 219.9,-101.8 233.1,-54.2 474.1,35.8 615.4,229.3 3.5,-0.2 6.6,-0.3 9.5,-0.2 31.6,0.7 57.8,14 77.9,39.5 23.3,29.6 32,59 25.8,87.7 -3.5,16.6 -12.2,32.7 -25.7,47.7 4.6,14.9 8.3,28.4 11.2,41.1 74.2,319.6 -125.4,639.9 -445,714.1 -79.9,18.6 -162.2,20.2 -241.7,5.6 4,2.4 7,5.2 9.1,7.6 13.7,15.3 15.7,40.7 5.5,67.9 -1.1,2.8 -2.3,5.6 -3.6,8.4 -1.1,2.5 -2.6,5.3 -4.2,8.1 -16.9,29.9 -44.9,51.2 -76.5,58.6 -4.1,0.9 -7.9,1.6 -11.7,2.1 -11.1,1.3 -21.8,1.9 -31.9,1.5 q -2.5,4.5 -5.5,8.9 c -1,1.6 -2.1,3.1 -3.3,4.7 -0.8,1.1 -1.8,2.2 -2.7,3.4 l -0.3,0.4 -0.4,0.3 c -2.1,2.7 -5,5.8 -8.4,9.2 -3.4,3.2 -6.6,5.9 -9.8,8.4 l -1.4,1 c -13.6,10.3 -29.2,17.7 -45.3,21.4 z M 933,1477.8 q 5.3,-1.2 10,-1.6 c -43.5,-10.2 -85.9,-25.4 -126.4,-45.3 1.7,14.1 9,26.3 21.9,36.1 0.5,0.4 0.9,0.8 1.4,1.2 1.2,1.1 27.2,24.9 88.5,10.7 z" /><path
             id="&lt;Path&gt;"
             class="s0"
             d="m 1641.2,591.1 c -18.6,-23.6 -42.7,-35.9 -71.9,-36.6 -4.3,-0.1 -8.7,0.2 -13.1,0.6 C 1422,368.4 1184,270.1 946.4,325.2 863,344.6 788.1,381 724.1,429.8 q -3.2,-3.2 -6.6,-6.1 c -17.1,-14.5 -40.4,-22.9 -62.9,-21.2 l -8.4,0.5 -8.1,1.7 c -5.6,0.8 -10.7,2.7 -15.9,4.4 -5.3,1.4 -9.9,3.9 -14.9,6.1 -4.8,2.1 -9.8,4.8 -14.5,7.8 -18.8,12.1 -33.2,30.4 -41.8,50.5 -17.4,40.7 -12.8,87.4 6.6,125.4 q 3.7,7.3 8.1,14 c -45.9,82.8 -71.9,176.8 -73.6,274.4 -2.7,1.6 -5,3.5 -6.7,5.9 -7.4,10.6 -3.7,27.5 8.1,46.5 2.2,30 6.7,60.1 13.7,90.2 20.2,87.1 59,165.3 111.3,231.1 -11.4,6 -24.3,10.7 -37.6,11.1 -16.5,0.6 -31.6,-5.7 -45,-18.7 -0.1,-0.2 -0.4,-0.4 -0.6,-0.6 -1.4,-1 -32.8,-26.6 -26.3,-95.9 2.2,-23.4 -7.1,-34.7 -15.4,-40 -14.6,-9.6 -36.9,-7.8 -59.6,4.9 -19,10.5 -39.9,30.4 -50.7,57.7 -1.6,3.9 -3,8 -4.1,12.2 -2.4,9 -3.7,18.8 -3.4,29.3 0.4,12.4 1.7,24.3 4.2,35.6 -5.3,3.3 -10.4,7.6 -15.3,12.6 -21.9,22.4 -40.6,62.9 -27.2,109.1 0.4,1.6 0.9,3.1 1.5,4.7 0,0 0,0 0,0.1 1.7,5.2 3.8,10.2 6.3,15.1 14.9,29.6 42.3,54.1 78.1,68.9 43.4,18 93.4,20.8 144.3,9 10.2,-2.4 20.6,-5.4 30.9,-9 3.8,-1.3 7.7,-2.8 11.7,-4.3 -0.1,0.8 -0.2,1.4 -0.3,2.2 v 0.1 c -6.4,55.8 3.5,108.5 29.2,151.3 24.2,40.4 60.8,66.5 100.5,71.8 14.4,2 27.8,1.1 40.1,-1.7 17,-4 31.7,-11.7 43.6,-21.1 h 0.1 c 3.2,-2.5 6.2,-5 9,-7.7 2.9,-2.9 5.7,-5.8 8.2,-8.9 l 0.3,-0.3 c 0.9,-1.1 1.8,-2.2 2.6,-3.3 1,-1.4 2,-2.8 3,-4.2 2.8,-4.2 5.3,-8.4 7.3,-12.7 q 0.5,0 1,0 c 11.2,0.7 22.8,0.2 34.7,-1.2 3.7,-0.5 7.4,-1.2 10.8,-2 34.4,-8 58.3,-31.6 71.5,-54.8 1.5,-2.5 2.8,-5 3.9,-7.6 1.3,-2.6 2.4,-5.2 3.4,-7.7 9.1,-24.4 7.6,-46.7 -4,-59.8 -6.5,-7.3 -19.4,-15 -41.9,-9.3 -67.9,16.9 -97.5,-10.6 -98.8,-11.8 -0.2,-0.2 -0.4,-0.4 -0.7,-0.6 -14.7,-11.2 -23.2,-25.3 -25.1,-41.7 -0.6,-4.6 -0.6,-9.3 -0.1,-14 119.8,62.4 261.6,84.1 403.3,51.2 315.3,-73.2 512.2,-389.3 439.1,-704.6 -3.6,-15.3 -7.9,-30.2 -12.5,-44.9 12.9,-13.5 23.1,-29.2 26.9,-47.4 5.7,-26.2 -2.6,-53.5 -24.2,-81 z" /><g
             id="g47"><path
               id="path19"
               class="s1"
               d="m 964.2,1549.4 c -9.5,25.3 -35.3,56.7 -76.5,61.8 -9.9,1.3 -19.5,1.7 -28.8,1.4 1.8,-9.2 1.2,-18 -2.2,-25.6 -4,-9.4 -13.9,-21.3 -37.9,-24 -39.3,-4.3 -64.9,-18 -76,-40.6 -22.6,-46.5 20.6,-117.4 21,-118.1 2.3,-3.8 1.1,-8.6 -2.6,-11 -3.7,-2.3 -8.7,-1.1 -11,2.6 -1,1.7 -14.2,23.3 -22.7,51.3 -7.8,25.5 -11.6,56.2 1,82.1 6.1,12.6 15.5,22.9 28.1,30.8 15.5,9.7 35.7,16 60.5,18.8 9,1 20.7,4.2 25,14.4 2.2,5 2.4,11.2 0.9,17.9 -1.1,4.9 -3.1,10 -6.1,15.2 -1.6,3.1 -3.7,6.2 -6,9.2 -16.3,21.4 -48.2,42.3 -89,36.8 -34.9,-4.6 -67.3,-28 -89.1,-64.2 -25.2,-42 -33.8,-96.4 -25.3,-152.7 1,-6.6 2.3,-13 3.7,-19.6 -6,3.1 -12.1,5.9 -18.1,8.4 -63.7,26.8 -130.4,30.1 -183.7,8 -38.9,-16 -66.8,-44.7 -76.6,-78.5 -11.5,-39.5 4.5,-74.3 23.3,-93.5 2.6,-2.7 5.4,-5.2 8.2,-7.3 4.7,-3.6 9.5,-6.5 14.2,-8.2 6.4,-2.6 12.5,-3.3 17.7,-1.8 10.8,2.8 15.7,13.8 18,22.5 6.4,24.2 15.5,43.2 27.4,56.9 9.8,11.4 21.3,19.2 34.7,23.5 27.3,8.6 57,0.3 81,-11 26.7,-12.5 46.3,-29 47.8,-30.2 3.3,-2.9 3.7,-7.9 0.9,-11.3 -2.8,-3.3 -7.9,-3.8 -11.2,-0.9 -0.7,0.5 -64.4,53.7 -113.7,38.2 -24,-7.6 -41.3,-30.9 -51.4,-69.2 -6.2,-23.3 -19.4,-31.3 -29.4,-34 -8,-2.1 -16.7,-1.5 -25.6,1.6 -1.7,-9.1 -2.8,-18.6 -2.9,-28.5 -1,-41.7 26.3,-71.7 49.9,-84.9 16.9,-9.4 33.9,-11.6 43.2,-5.5 8.2,5.4 9.1,16.7 8.3,25.2 -7.1,75.2 27.3,106 32,109.8 16.4,15.9 35.3,23.6 56.3,22.9 17.2,-0.6 33.4,-6.8 47.2,-14.6 46.3,55.3 102.3,101.4 164.8,136.1 -1.3,7.9 -1.6,16 -0.7,24 2.5,20.8 12.9,38.4 31.1,52.3 4.3,4 39.9,33.7 113.2,15.5 8.2,-2.1 19.6,-3 26.1,4.4 7.5,8.3 7.8,25.4 1,43.6 z" /><path
               id="path20"
               class="s2"
               d="m 424.9,1220 c -0.2,9.9 -0.4,20 0.3,29.3 -1.6,-0.8 -3.3,-1.3 -4.8,-1.8 -8,-2 -16.8,-1.5 -25.7,1.7 -1.7,-9.1 -2.7,-18.6 -2.9,-28.6 -0.4,-15.3 3.1,-29.2 8.9,-41.2 6.8,-2.8 12.8,-4.1 17,-2.5 7.9,2.9 7.5,24.3 7.2,43.1 z" /><path
               id="path21"
               class="s0"
               d="m 979.2,1555 c -1,2.5 -2.1,5.2 -3.4,7.7 -1.1,2.6 -2.4,5.1 -3.8,7.7 -13.2,23.2 -37.1,46.8 -71.5,54.8 -3.5,0.8 -7.1,1.4 -10.9,1.9 -11.9,1.5 -23.5,2 -34.7,1.3 q -0.5,0 -1,0 c -2,4.2 -4.5,8.5 -7.3,12.6 -0.9,1.5 -1.9,2.8 -3,4.2 -0.8,1.1 -1.7,2.2 -2.6,3.3 l -0.3,0.4 c -2.5,3 -5.2,5.9 -8.2,8.8 -2.8,2.7 -5.7,5.3 -9,7.8 h -0.1 c -11.9,9.3 -26.6,17 -43.6,21 -12.3,2.8 -25.6,3.7 -40,1.7 -39.7,-5.3 -76.4,-31.4 -100.6,-71.8 -25.7,-42.8 -35.6,-95.5 -29.1,-151.3 v -0.1 c 0,-0.7 0.1,-1.4 0.2,-2.2 -3.9,1.5 -7.8,3 -11.7,4.3 -10.3,3.6 -20.6,6.6 -30.9,9 -50.8,11.8 -100.8,9 -144.3,-9 -35.7,-14.8 -63.2,-39.2 -78.1,-68.8 -2.4,-4.9 -4.6,-10 -6.3,-15.2 0,-0.1 0,-0.1 0,-0.1 -0.5,-1.6 -1,-3.1 -1.5,-4.7 -13.3,-46.1 5.3,-86.6 27.2,-109.1 4.9,-5 10,-9.3 15.3,-12.6 -2.4,-11.3 -3.8,-23.2 -4.2,-35.6 -0.2,-10.4 1.1,-20.2 3.5,-29.3 1.1,-4.2 2.4,-8.2 4,-12.1 v -0.1 c 10.9,-27.2 31.8,-47.2 50.7,-57.7 22.8,-12.6 45,-14.4 59.6,-4.9 8.3,5.3 17.7,16.7 15.5,40 -6.6,69.4 24.9,94.9 26.3,96 0.2,0.1 0.5,0.3 0.6,0.5 13.3,13 28.4,19.3 44.9,18.7 13.3,-0.4 26.2,-5.1 37.6,-11.1 4.8,-2.6 9.4,-5.4 13.5,-8.3 15.7,-10.8 26.1,-22.1 26.2,-22.3 2.9,-3.2 8,-3.5 11.2,-0.6 3.4,3 3.6,8 0.7,11.2 -0.9,1 -11.5,12.6 -27.9,24.1 -4.1,2.9 -8.6,5.9 -13.5,8.5 -13.7,7.7 -30,14 -47.2,14.5 -20.9,0.7 -39.8,-7 -56.3,-22.9 -4.6,-3.8 -39.1,-34.5 -32,-109.8 0.8,-8.5 0,-19.7 -8.2,-25.2 -9.4,-6 -26.3,-3.9 -43.3,5.5 -12.2,6.9 -25.5,18.3 -35.2,33.5 -2.2,3.2 -4.1,6.7 -5.8,10.2 -5.8,12 -9.3,25.9 -8.9,41.2 0.2,10 1.2,19.5 2.9,28.6 8.9,-3.2 17.7,-3.7 25.7,-1.7 1.5,0.5 3.2,1 4.8,1.8 2.8,1.1 5.7,2.8 8.6,5.1 6.3,5.2 12.3,13.5 15.9,27.1 10.1,38.3 27.4,61.6 51.4,69.2 49.4,15.6 113,-37.7 113.7,-38.2 3.4,-2.9 8.4,-2.4 11.2,1 2.8,3.3 2.5,8.3 -0.9,11.2 -1.5,1.3 -21.1,17.7 -47.8,30.3 -24,11.3 -53.6,19.5 -80.9,10.9 -13.4,-4.2 -25,-12 -34.7,-23.4 -11.9,-13.8 -21.1,-32.8 -27.4,-56.9 -2.4,-8.7 -7.3,-19.8 -18,-22.6 -5.3,-1.4 -11.4,-0.7 -17.8,1.8 -4.6,1.7 -9.5,4.6 -14.2,8.2 -2.8,2.1 -5.5,4.6 -8.2,7.3 -15.6,16 -29.3,42.7 -26.8,74.1 0.3,4.2 0.9,8.3 1.9,12.6 v 0.1 c 0.4,2.2 0.9,4.5 1.6,6.8 9.8,33.8 37.8,62.4 76.7,78.5 51.1,21.1 114.7,19 176,-5 q 3.8,-1.4 7.6,-3 c 0.5,-0.2 1.1,-0.5 1.7,-0.8 5.5,-2.3 10.9,-4.9 16.4,-7.6 -1,4.6 -1.9,9.2 -2.6,13.9 -0.4,1.8 -0.7,3.7 -1,5.6 -0.2,0.8 -0.3,1.5 -0.3,2.3 -8,55.6 0.7,109 25.6,150.5 21.7,36.1 54.1,59.5 89,64.1 35.8,4.9 65,-10.7 82.5,-29.1 2.4,-2.5 4.6,-5.1 6.5,-7.6 0.2,-0.2 0.4,-0.5 0.5,-0.8 h 0.1 c 2.1,-2.9 3.9,-5.6 5.5,-8.5 2.9,-5.2 4.9,-10.3 6,-15.2 1.6,-6.7 1.4,-12.9 -0.9,-17.9 -4.3,-10.1 -15.9,-13.4 -24.9,-14.4 -24.9,-2.8 -45.1,-9 -60.5,-18.8 -12.7,-7.9 -22.1,-18.2 -28.2,-30.8 -12.6,-25.8 -8.7,-56.6 -1,-82 8.5,-28 21.7,-49.7 22.7,-51.4 2.4,-3.7 7.3,-4.9 11,-2.5 3.8,2.3 4.9,7.2 2.6,10.9 -0.4,0.8 -43.6,71.7 -20.9,118.1 11,22.6 36.6,36.3 76,40.6 22.5,2.6 32.6,13.2 37.1,22.3 0.3,0.6 0.6,1.1 0.8,1.7 0.9,2 1.6,4.2 2.1,6.4 1.4,6 1.4,12.5 0.1,19.2 9.3,0.3 18.8,-0.1 28.7,-1.3 36.2,-4.6 60.5,-29.4 72.4,-52.5 1.3,-2.6 2.4,-5.1 3.4,-7.6 0.3,-0.6 0.6,-1.2 0.7,-1.8 6.9,-18.2 6.5,-35.3 -0.9,-43.6 -6.6,-7.4 -18,-6.4 -26.2,-4.4 -73.2,18.2 -108.8,-11.4 -113.2,-15.5 -18.1,-13.9 -28.6,-31.5 -31,-52.3 -1,-8 -0.7,-16.1 0.6,-23.9 0.8,-5.4 2.1,-10.8 3.7,-16 9.1,-29.9 28,-53.2 29.1,-54.6 2.8,-3.4 7.8,-3.8 11.2,-1.1 3.4,2.8 3.9,7.9 1.1,11.2 -0.2,0.4 -19.3,23.9 -27.2,52.4 -1.3,5.3 -2.4,10.8 -2.8,16.3 -0.5,4.7 -0.5,9.3 0.1,13.9 2,16.4 10.5,30.5 25.2,41.7 0.3,0.2 0.5,0.4 0.7,0.6 1.2,1.2 30.9,28.7 98.7,11.9 22.6,-5.8 35.4,1.9 41.9,9.2 11.7,13.1 13.2,35.4 4,59.8 z" /><g
               id="g24"><path
                 id="path22"
                 class="s1"
                 d="m 1638,767.4 c 71.3,307.2 -119.9,614.1 -427.2,685.4 C 903.6,1524.2 596.7,1332.9 525.4,1025.7 454,718.4 645.3,411.5 952.5,340.2 1259.8,268.8 1566.7,460.1 1638,767.4 Z" /><path
                 id="path23"
                 class="s3"
                 d="m 1585.3,734.3 c 39.4,169.9 -17.3,328.2 -126.8,353.6 -109.5,25.4 -230.2,-91.7 -269.6,-261.6 -39.4,-169.8 17.3,-328.1 126.8,-353.5 109.5,-25.5 230.2,91.6 269.6,261.5 z" /><path
                 id="path24"
                 class="s0"
                 d="m 947.9,324.6 c -315.3,73.2 -512.3,389.3 -439.1,704.7 20.2,87.1 59,165.3 111.3,231.1 3.3,4.2 6.7,8.4 10.2,12.5 46.3,55.3 102.3,101.4 164.8,136.1 5,2.9 10,5.6 15,8.2 119.9,62.4 261.7,84.1 403.4,51.2 315.3,-73.2 512.2,-389.3 439,-704.6 C 1579.3,448.4 1263.2,251.4 947.9,324.6 Z m 262,1128.2 c -4.4,1 -8.8,2 -13.1,2.9 q -6.6,1.4 -13.2,2.6 c -2.6,0.5 -5.2,0.9 -7.8,1.4 -2.9,0.5 -5.6,0.9 -8.5,1.4 -3.6,0.5 -7.3,1 -10.8,1.5 -3.2,0.4 -6.3,0.8 -9.4,1.1 q -12.7,1.6 -25.2,2.4 c -2.7,0.3 -5.2,0.5 -7.8,0.6 -2.5,0.2 -4.9,0.4 -7.4,0.4 -3.9,0.2 -7.7,0.3 -11.6,0.4 -4,0.1 -8,0.3 -12,0.3 -14.3,0 -28.4,-0.5 -42.4,-1.5 -3.4,-0.2 -6.8,-0.4 -10.1,-0.8 -5.6,-0.4 -11.1,-0.9 -16.6,-1.6 -3.5,-0.4 -7.1,-0.9 -10.6,-1.4 -0.2,0 -0.4,0 -0.5,-0.1 -3.6,-0.5 -7.2,-1 -10.7,-1.6 -29.8,-4.6 -58.9,-11.6 -87.3,-20.8 -2.3,-0.7 -4.5,-1.5 -6.7,-2.3 q -4.4,-1.3 -8.5,-2.9 c -4.4,-1.5 -8.7,-3.1 -12.9,-4.8 -4.2,-1.6 -8.3,-3.2 -12.5,-4.9 -0.2,-0.1 -0.3,-0.2 -0.6,-0.3 -4.2,-1.7 -8.3,-3.4 -12.4,-5.3 -13,-5.7 -25.8,-11.9 -38.3,-18.5 -4.8,-2.5 -9.6,-5.2 -14.3,-7.9 -3.6,-2 -7.2,-4.2 -10.9,-6.4 -3.6,-2 -7.3,-4.2 -10.7,-6.5 -25.6,-16 -49.8,-34.1 -72.6,-53.9 -2.2,-1.9 -4.4,-3.9 -6.7,-5.9 -3.6,-3.3 -7.4,-6.8 -11,-10.3 -2.8,-2.6 -5.5,-5.3 -8.3,-8 q -0.3,-0.3 -0.6,-0.6 c -2.9,-2.9 -5.8,-5.8 -8.6,-8.7 -2.9,-3.1 -5.8,-6.1 -8.7,-9.2 -5.8,-6.2 -11.4,-12.6 -16.8,-19.1 -0.6,-0.6 -1.1,-1.3 -1.6,-1.9 -2.3,-2.6 -4.4,-5.2 -6.5,-7.9 -0.7,-0.9 -1.4,-1.8 -2.1,-2.7 -3.2,-4 -6.4,-8.1 -9.5,-12.2 -2.9,-3.8 -5.7,-7.6 -8.5,-11.6 -0.6,-0.7 -1.1,-1.4 -1.7,-2.3 q -3.8,-5.2 -7.4,-10.8 c -0.2,-0.3 -0.5,-0.8 -0.8,-1.2 q -2.9,-4.3 -5.7,-8.7 c -1.4,-2.2 -2.9,-4.4 -4.2,-6.6 -5.2,-8.3 -10.2,-16.8 -15,-25.5 q -4.8,-8.6 -9.2,-17.5 c -3.4,-6.7 -6.7,-13.5 -9.9,-20.4 -1.5,-3.1 -2.8,-6.2 -4.2,-9.4 -0.9,-1.8 -1.6,-3.6 -2.4,-5.5 -1.2,-3 -2.5,-6.1 -3.7,-9.2 -0.5,-1 -0.9,-2 -1.3,-3.2 -1.5,-3.5 -2.9,-7.2 -4.2,-10.8 -0.6,-1.3 -1.1,-2.8 -1.6,-4.3 -0.9,-2.4 -1.7,-4.7 -2.5,-7.2 -1.3,-3.3 -2.4,-6.6 -3.4,-10.1 -0.6,-1.3 -1,-2.8 -1.5,-4.4 -1.5,-4.5 -2.9,-9.1 -4.2,-13.8 q -2.3,-7.8 -4.4,-15.7 c -1.4,-5.3 -2.7,-10.5 -4,-15.9 C 453,718.4 644.2,411.5 951.5,340.2 c 307.3,-71.4 614.2,119.9 685.5,427.2 71.3,307.2 -119.9,614.1 -427.1,685.4 z" /></g><path
               id="path25"
               class="s0"
               d="m 1549.6,640.4 c -0.9,0.4 -2.8,1.8 -5.9,4.5 l 11.2,-11.3 c -2.6,3.2 -4.1,5.1 -4.4,5.9 -0.2,0.4 -0.3,0.6 -0.2,0.7 -0.2,0 -0.3,0 -0.7,0.2 z" /><path
               id="path26"
               class="s0"
               d="M 829.5,829 C 841.3,879.9 809.6,930.8 758.7,942.6 707.8,954.4 656.9,922.7 645.1,871.8 633.3,820.9 665,770 715.9,758.2 766.8,746.4 817.7,778.1 829.5,829 Z" /><path
               id="path27"
               class="s2"
               d="m 725.3,839.2 c 4.4,19 -7.4,38 -26.5,42.4 -19,4.4 -38,-7.4 -42.4,-26.4 -4.4,-19.1 7.4,-38.1 26.4,-42.5 19.1,-4.4 38.1,7.4 42.5,26.5 z" /><path
               id="path28"
               class="s2"
               d="m 726,887.5 c 2.8,12.1 -4.7,24.2 -16.8,27 -12.1,2.8 -24.2,-4.7 -27,-16.8 -2.8,-12.1 4.7,-24.2 16.8,-27 12.1,-2.8 24.2,4.7 27,16.8 z" /><path
               id="path29"
               class="s2"
               d="m 811.1,833.3 c 6.2,26.3 0.2,50.3 -13.2,53.4 -13.5,3.1 -29.4,-15.8 -35.5,-42.1 -6.1,-26.4 -0.2,-50.3 13.3,-53.5 13.4,-3.1 29.3,15.8 35.4,42.2 z" /><path
               id="path30"
               class="s0"
               d="m 1289.2,1140.9 c 11.8,51 -19.9,101.8 -70.8,113.7 -50.9,11.8 -101.8,-19.9 -113.6,-70.8 -11.8,-51 19.9,-101.8 70.8,-113.6 50.9,-11.9 101.8,19.8 113.6,70.7 z" /><path
               id="path31"
               class="s2"
               d="m 1185,1151.1 c 4.4,19 -7.4,38 -26.4,42.5 -19.1,4.4 -38.1,-7.5 -42.5,-26.5 -4.4,-19 7.4,-38 26.5,-42.4 19,-4.5 38,7.4 42.4,26.4 z" /><path
               id="path32"
               class="s2"
               d="m 1185.8,1199.5 c 2.8,12.1 -4.8,24.2 -16.9,27 -12.1,2.8 -24.2,-4.7 -27,-16.8 -2.8,-12.1 4.8,-24.2 16.9,-27 12.1,-2.9 24.2,4.7 27,16.8 z" /><path
               id="path33"
               class="s2"
               d="m 1270.9,1145.2 c 6.1,26.4 0.1,50.3 -13.3,53.4 -13.5,3.2 -29.3,-15.7 -35.5,-42.1 -6.1,-26.4 -0.1,-50.3 13.3,-53.4 13.5,-3.1 29.3,15.7 35.5,42.1 z" /><path
               id="path34"
               class="s0"
               d="m 1068.6,1089.3 c -1.6,7.9 -8.3,14 -15.4,17.3 -7.2,3.4 -14.6,4.6 -22.3,4.9 -7.6,0.7 -16.5,-1 -23.7,-5.9 -7.4,-4.9 -11.9,-12.3 -15.2,-19 -0.3,-0.5 -0.5,-1.1 -0.8,-1.6 -1.3,-2.7 -2.5,-5.4 -3.7,-8 -1.5,-3.2 -2.9,-6.5 -4.6,-9.6 -5.7,-12 -13.9,-21.4 -25,-27.3 -11,-6.5 -23.5,-8.6 -36.4,-7.3 -6.5,0.5 -13.1,2 -20.2,3.4 -5.7,1.2 -12.1,2.4 -18.9,1.9 -1.6,-0.1 -3.1,-0.3 -4.8,-0.7 -1.2,-0.2 -2.4,-0.6 -3.6,-1 -7.2,-2.5 -13,-8.2 -16.6,-13.9 -4.2,-6.5 -7.1,-15 -5.7,-23.3 1.4,-8.3 6.6,-14.8 12.2,-19.5 5.7,-4.8 12.1,-8.3 18.9,-10.7 -6,3.9 -11.5,8.6 -15.8,13.8 -4.3,5.2 -7.6,11.2 -7.5,17.3 -0.2,6 2.4,11.6 6.4,16.5 4.1,4.7 8.6,8.1 13.9,8.6 10.9,1.1 24.9,-5.3 39.9,-7.4 15.4,-2.2 32.2,0.6 45.9,8.3 3.4,2.1 6.9,4 9.9,6.7 3.3,2.5 6,5.4 8.7,8.3 5.1,6.1 9.4,12.9 12.4,19.8 6.1,13.6 9.4,27.8 17.9,34.6 4.2,3.5 9.9,5.4 16.5,5.6 3.2,0.5 6.6,0 9.8,0 3.3,-0.5 6.6,-0.7 9.6,-1.8 6,-1.8 11.5,-5.3 14,-11.4 2.8,-5.9 2.9,-13.3 1.3,-20.2 3.2,6.4 4.8,13.9 2.9,21.6 z" /><path
               id="path35"
               class="s0"
               d="m 997.5,1077.3 c -2.1,2.6 -4.2,5.2 -6.3,7.7 -21.4,26.2 -41.5,48.7 -59.6,67.3 -35.6,36.3 -63.3,56.7 -83.7,61.5 q -14.1,3.2 -23.6,-3.4 c -25.5,-17.7 -12.6,-70.1 38.6,-155.8 3.8,-6.4 7.5,-12.5 11.1,-18.2 1.4,-2.3 2.8,-4.5 4.2,-6.7 l 0.9,-1.5 1.6,-0.4 0.9,4 3.4,2.1 -2.6,4.2 c -3.3,5.2 -6.8,10.8 -10.3,16.6 -0.7,1.3 -1.6,2.6 -2.3,3.9 -0.6,1 -1.3,2.1 -1.8,3 -45.9,77.6 -59.7,128 -39.1,142.3 15.6,10.7 49.5,-9 95.6,-55.8 0.5,-0.5 1,-1 1.5,-1.5 1.7,-1.8 3.5,-3.6 5.2,-5.5 17.3,-17.9 36.2,-39.4 56.3,-64.1 1.3,-1.6 2.6,-3.1 3.9,-4.7 z" /><path
               id="path36"
               class="s0"
               d="m 931.2,1141.1 c -10.4,-52.8 -36.8,-76.1 -59.1,-86.4 3.5,-5.8 7,-11.4 10.3,-16.6 6.8,0.5 13.2,-0.7 18.9,-1.9 7.1,-1.4 13.7,-2.9 20.2,-3.4 12.9,-1.3 25.4,0.8 36.4,7.3 11.1,5.9 19.3,15.3 25,27.3 1.7,3.1 3.1,6.4 4.6,9.6 -20.1,24.7 -39,46.2 -56.3,64.1 z" /><path
               id="path37"
               class="s4"
               d="m 924.5,1148.1 c -46.1,46.8 -80,66.5 -95.6,55.8 -20.6,-14.3 -6.8,-64.7 39.1,-142.3 21.4,9.5 47.2,32.3 56.5,86.5 z" /><path
               id="path38"
               class="s0"
               d="m 931.2,1141.1 c 0.6,2.5 1.1,5.1 1.5,7.7 l -7.8,1.3 c -0.1,-0.7 -0.2,-1.4 -0.4,-2 -9.3,-54.2 -35.1,-77 -56.5,-86.5 -1.1,-0.4 -2.1,-0.9 -3.1,-1.3 l 2.9,-7.4 c 1.4,0.5 2.9,1.2 4.3,1.8 22.3,10.3 48.7,33.6 59.1,86.4 z" /><g
               id="g40"><g
                 id="g39"><path
                   id="path39"
                   class="s5"
                   d="m 692.1,1038 c -15.6,22.4 -74.6,8.2 -131.7,-31.8 -57.1,-40 -90.7,-90.6 -75,-113 15.7,-22.4 74.7,-8.1 131.8,31.9 57.1,40 90.6,90.6 74.9,112.9 z" /></g></g><g
               id="g42"><g
                 id="g41"><path
                   id="path40"
                   class="s5"
                   d="m 1243.4,1407.8 c -15.7,22.4 -74.7,8.2 -131.8,-31.8 -57.1,-40 -90.6,-90.6 -74.9,-113 15.6,-22.4 74.6,-8.1 131.7,31.9 57.1,40 90.7,90.6 75,112.9 z" /></g></g><path
               id="path42"
               class="s2"
               d="m 605.5,1447.4 c -61.3,24 -124.9,26.1 -176,5 -38.9,-16.1 -66.9,-44.7 -76.7,-78.5 -0.7,-2.3 -1.2,-4.6 -1.6,-6.8 v -0.1 c 1.7,-4.3 3.8,-7.6 6.3,-9.6 2.3,-1.8 4.8,-2.2 7.9,-1.2 11.9,3.8 21,18 30.7,32.9 14.2,21.7 30.2,46.3 60.3,51.8 31.6,5.7 79.1,-3.3 113.8,-9.9 16.2,-3.1 34.5,-6.5 37.6,-5.5 1.9,1.2 1,10 -2.3,21.9 z" /><path
               id="path43"
               class="s2"
               d="m 822.9,1631.6 c 0.7,4.1 1.2,8.1 1.5,11.7 -17.5,18.4 -46.7,34 -82.5,29.1 -34.9,-4.6 -67.3,-28 -89,-64.1 -24.9,-41.5 -33.6,-94.9 -25.6,-150.5 0.3,-0.1 0.6,0 1,0.1 3.1,0.9 5.6,4.1 7.1,9.6 1.8,6.1 2.5,16.8 3.3,29.3 3.1,44.2 7.6,111 61.6,128.8 32.9,10.8 62.2,1.9 83.5,-4.6 14.2,-4.4 25.5,-7.8 31.8,-4 3.6,2.2 5.9,6.9 7.3,14.6 z" /><path
               id="path44"
               class="s0"
               d="m 830.7,1630.2 c 0.3,1.6 0.6,3.2 0.8,4.7 h -0.1 c 1.3,8.7 1.6,16.3 1.1,22.8 -2.8,2.7 -5.7,5.3 -9,7.8 1.2,-6 1.6,-13.3 0.9,-22.2 -0.3,-3.6 -0.8,-7.6 -1.5,-11.7 -1.4,-7.7 -3.7,-12.4 -7.3,-14.6 -6.3,-3.8 -17.6,-0.4 -31.8,4 -21.3,6.5 -50.6,15.4 -83.5,4.6 -54,-17.8 -58.5,-84.6 -61.6,-128.8 -0.8,-12.5 -1.5,-23.2 -3.3,-29.3 -1.5,-5.5 -4,-8.7 -7.1,-9.6 -0.4,-0.1 -0.7,-0.2 -1,-0.1 -5.4,-0.8 -12.6,3.6 -17.2,7.2 0,-0.7 0.1,-1.4 0.2,-2.2 -3.9,1.5 -7.8,3 -11.7,4.3 l 1.3,-3.2 c 2.3,-5.8 4.1,-11.5 5.6,-16.5 3.3,-11.9 4.2,-20.7 2.3,-21.9 -3.1,-1 -21.4,2.4 -37.6,5.5 -34.7,6.6 -82.2,15.6 -113.8,9.9 -30.1,-5.5 -46.1,-30.1 -60.3,-51.8 -9.7,-14.9 -18.8,-29.1 -30.7,-32.9 -3.1,-1 -5.6,-0.6 -7.9,1.2 -2.5,2 -4.6,5.3 -6.3,9.6 v 0.1 c -3.3,8.2 -5,19.8 -5.9,31.2 -2.4,-4.9 -4.6,-10 -6.3,-15.2 0,-0.1 0,-0.1 0,-0.1 1.9,-11.5 5.1,-22.2 10.3,-28.6 1,-1.3 2.1,-2.4 3.3,-3.3 4.4,-3.4 9.7,-4.2 15.2,-2.5 14.6,4.7 24.5,19.9 35,36.2 13.3,20.3 28.3,43.4 55.1,48.3 30,5.4 76.8,-3.5 110.9,-9.9 29.1,-5.6 38.9,-7.2 43.2,-4.4 5.7,3.5 5.2,14 2.8,24.8 -0.9,3.6 -1.9,7.2 -2.9,10.5 5,-2.8 10.9,-5.1 16.7,-4.2 q 0.8,0 1.7,0.3 c 6.1,1.6 10.4,6.7 12.8,15.2 2,6.9 2.7,17.4 3.6,30.8 2.9,42.1 7.3,105.8 56.1,121.8 30.5,10 57.2,1.9 78.7,-4.6 16.2,-5 28.9,-8.9 38.3,-3.1 5.6,3.4 9.2,9.9 10.9,19.9 z" /><path
               id="path45"
               class="s0"
               d="m 841,1648.5 5.6,-7.5 c -1,1.4 -2,2.8 -3,4.2 -0.8,1.1 -1.7,2.2 -2.6,3.3 z" /><path
               id="path46"
               class="s2"
               d="m 960.1,1558.8 c -11.9,23.1 -36.2,47.9 -72.4,52.5 -9.9,1.2 -19.4,1.6 -28.7,1.3 1.3,-6.7 1.3,-13.2 -0.1,-19.2 11.8,0.5 35.1,-0.3 54.6,-11.4 10.9,-6.4 16.8,-14.8 21.5,-21.6 7,-10 9.1,-13 20.6,-5.1 1.5,1.2 3.1,2.3 4.5,3.5 z" /><path
               id="path47"
               class="s0"
               d="m 975.8,1562.7 c -1.1,2.6 -2.4,5.1 -3.8,7.7 -3.4,-4 -7.4,-8 -11.9,-11.6 -1.4,-1.2 -3,-2.3 -4.5,-3.5 -11.5,-7.9 -13.6,-4.9 -20.6,5.1 -4.7,6.8 -10.6,15.2 -21.5,21.6 -19.5,11.1 -42.8,11.9 -54.6,11.4 -1.2,0 -2.3,0 -3.2,-0.1 l -0.8,35.1 q -0.5,0 -1,0 c -2,4.2 -4.5,8.5 -7.3,12.6 l 1.3,-56.6 4.4,0.6 c 0.1,-0.1 1.3,0.1 3.7,0.3 9.1,0.6 33.9,1 53.5,-10.3 9.4,-5.4 14.5,-12.7 19,-19.2 6.7,-9.6 13.5,-19.5 31.6,-7.1 1.1,0.8 2.2,1.7 3.4,2.5 4.6,3.6 8.7,7.5 12.3,11.5 z" /></g></g><g
           id="g50"><g
             id="g49" /></g><g
           id="g51" /><g
           id="g53"><g
             id="g52" /></g><g
           id="g70"><g
             id="g69"><g
               id="g54" /><g
               id="g55" /><g
               id="g56" /><g
               id="g57" /><g
               id="g58" /><g
               id="g59" /><g
               id="g60" /><g
               id="g61" /><g
               id="g62" /><g
               id="g63" /><g
               id="g64" /><g
               id="g65" /><g
               id="g66" /><g
               id="g67" /><g
               id="g68" /></g></g><g
           id="g155"><g
             id="g71" /><g
             id="g87"><g
               id="g86"><g
                 id="g72" /><g
                 id="g73" /><g
                 id="g74" /><g
                 id="g75" /><g
                 id="g76" /><g
                 id="g77" /><g
                 id="g78" /><g
                 id="g79" /><g
                 id="g80" /><g
                 id="g81" /><g
                 id="g82" /><g
                 id="g83" /><g
                 id="g84" /><g
                 id="g85" /></g></g><g
             id="g114"><g
               id="g105"><g
                 id="g88" /><g
                 id="g89" /><g
                 id="g94"><g
                   id="g90" /><g
                   id="g91" /><g
                   id="g92" /><g
                   id="g93" /></g><g
                 id="g104"><g
                   id="g103"><g
                     id="g95" /><g
                     id="g96" /><g
                     id="g97" /><g
                     id="g98" /><g
                     id="g99" /><g
                     id="g100" /><g
                     id="g101" /><g
                     id="g102" /></g></g></g><g
               id="g113"><g
                 id="g107"><g
                   id="g106" /></g><g
                 id="g109"><g
                   id="g108" /></g><g
                 id="g111"><g
                   id="g110" /></g><g
                 id="g112" /></g></g><g
             id="g116"><g
               id="g115" /></g><g
             id="g120"><g
               id="g117" /><g
               id="g118" /><g
               id="g119" /></g><g
             id="g124"><g
               id="g121" /><g
               id="g122" /><g
               id="g123" /></g><g
             id="g125" /><g
             id="g127"><g
               id="g126" /></g><g
             id="g128" /><g
             id="g129" /><g
             id="g130" /><g
             id="g131" /><g
             id="g132" /><g
             id="g133" /><g
             id="g134" /><g
             id="g135" /><g
             id="g136" /><g
             id="g137" /><g
             id="g138" /><g
             id="g139" /><g
             id="g140" /><g
             id="g141" /><g
             id="g142" /><g
             id="g143" /><g
             id="g144" /><g
             id="g145" /><g
             id="g146" /><g
             id="g147" /><g
             id="g148" /><g
             id="g149" /><g
             id="g150" /><g
             id="g152"><g
               id="g151" /></g><g
             id="g154"><g
               id="g153" /></g></g><g
           id="g156" /><g
           id="g158"><g
             id="g157" /></g><g
           id="g170"><g
             id="g159" /><g
             id="g169"><g
               id="g160" /><g
               id="g161" /><g
               id="g162" /><g
               id="g163" /><g
               id="g164" /><g
               id="g165" /><g
               id="g166" /><g
               id="g167" /><g
               id="g168" /></g></g><g
           id="g175"><g
             id="g174"><g
               id="g171" /><g
               id="g172" /><g
               id="g173" /></g></g><g
           id="g180"><g
             id="g179"><g
               id="g176" /><g
               id="g177" /><g
               id="g178" /></g></g><g
           id="g185"><g
             id="g184"><g
               id="g181" /><g
               id="g182" /><g
               id="g183" /></g></g><g
           id="g189"><g
             id="g186" /><g
             id="g188"><g
               id="g187" /></g></g><g
           id="g201"><g
             id="g190" /><g
             id="g192"><g
               id="g191" /></g><g
             id="g194"><g
               id="g193" /></g><g
             id="g196"><g
               id="g195" /></g><g
             id="g198"><g
               id="g197" /></g><g
             id="g200"><g
               id="g199" /></g></g><g
           id="g213"><g
             id="g202" /><g
             id="g204"><g
               id="g203" /></g><g
             id="g206"><g
               id="g205" /></g><g
             id="g208"><g
               id="g207" /></g><g
             id="g210"><g
               id="g209" /></g><g
             id="g212"><g
               id="g211" /></g></g><g
           id="g225"><g
             id="g214" /><g
             id="g216"><g
               id="g215" /></g><g
             id="g218"><g
               id="g217" /></g><g
             id="g220"><g
               id="g219" /></g><g
             id="g222"><g
               id="g221" /></g><g
             id="g224"><g
               id="g223" /></g></g><g
           id="g237"><g
             id="g226" /><g
             id="g228"><g
               id="g227" /></g><g
             id="g230"><g
               id="g229" /></g><g
             id="g232"><g
               id="g231" /></g><g
             id="g234"><g
               id="g233" /></g><g
             id="g236"><g
               id="g235" /></g></g><g
           id="g238" /><g
           id="g239" /><g
           id="g240" /><g
           id="g241" /><g
           id="g242" /><g
           id="g243" /><g
           id="g244" /><g
           id="g245" /><g
           id="g246" /><g
           id="g247" /><g
           id="g248" /></g><g
         id="g260"><g
           id="g251"><g
             id="g250" /></g><g
           id="g252" /><g
           id="g259"><g
             id="g254"><g
               id="g253" /></g><g
             id="g256"><g
               id="g255" /></g><g
             id="g258"><g
               id="g257" /></g></g></g></g></g><style
     id="style1">
		.s0 { fill: #603913 } 
		.s1 { fill: #ff7470 } 
		.s2 { fill: #ffffff } 
		.s3 { fill: #ffb0b0 } 
		.s4 { fill: #fffca4 } 
		.s5 { fill: #ffb4c7 } 
	</style></svg>
